<svg id="SvgjsSvg1001" width="288" height="288" xmlns="http://www.w3.org/2000/svg" version="1.1" xmlns:xlink="http://www.w3.org/1999/xlink" xmlns:svgjs="http://svgjs.com/svgjs"><defs id="SvgjsDefs1002"></defs><g id="SvgjsG1008"><svg xmlns="http://www.w3.org/2000/svg" viewBox="0 0 296 203" width="288" height="288"><path fill="#3b5441" d="M0 0 C1.95825873 -0.02694851 3.91662226 -0.04637218 5.875 -0.0625 C7.51082031 -0.07990234 7.51082031 -0.07990234 9.1796875 -0.09765625 C12 0 12 0 14 1 C15.56777801 1.08499609 17.1391771 1.10718332 18.70922852 1.09765625 C20.17568565 1.09270142 20.17568565 1.09270142 21.67176819 1.08764648 C23.25930153 1.07519897 23.25930153 1.07519897 24.87890625 1.0625 C25.96131088 1.05871338 27.04371552 1.05492676 28.15892029 1.05102539 C31.62681985 1.03877315 35.09463778 1.02013829 38.5625 1 C43.12629973 0.97353771 47.69005916 0.95348002 52.25390625 0.9375 C53.31428604 0.92920166 54.37466583 0.92090332 55.46717834 0.91235352 C56.44166428 0.90905029 57.41615021 0.90574707 58.42016602 0.90234375 C59.71350609 0.89448853 59.71350609 0.89448853 61.03297424 0.88647461 C63 1 63 1 64 2 C64.10176324 3.51221009 64.13568404 5.02905999 64.1418457 6.54467773 C64.15239738 7.99770546 64.15239738 7.99770546 64.16316223 9.48008728 C64.16732651 10.53724442 64.17149078 11.59440155 64.17578125 12.68359375 C64.19899988 14.91342069 64.22311801 17.1432384 64.24804688 19.37304688 C64.28302263 22.89483617 64.31241865 26.41629142 64.32592773 29.93823242 C64.34150527 33.33293639 64.38180279 36.72665377 64.42578125 40.12109375 C64.42387283 41.16003281 64.42196442 42.19897186 64.41999817 43.26939392 C64.55574348 51.47665914 66.08396036 58.57365343 71.5 64.9375 C72.325 65.618125 73.15 66.29875 74 67 C74.88945312 67.75410156 74.88945312 67.75410156 75.796875 68.5234375 C78.39741054 70.26634962 80.71987406 70.92996851 83.75 71.6875 C84.73484375 71.93886719 85.7196875 72.19023438 86.734375 72.44921875 C87.48203125 72.63097656 88.2296875 72.81273438 89 73 C88 75 88 75 85.1640625 76.03515625 C83.99617188 76.37417969 82.82828125 76.71320313 81.625 77.0625 C80.46226562 77.40410156 79.29953125 77.74570313 78.1015625 78.09765625 C76.56628906 78.54431641 76.56628906 78.54431641 75 79 C73.515 79.495 73.515 79.495 72 80 C72 80.66 72 81.32 72 82 C71.34 82 70.68 82 70 82 C65.64878837 90.03300609 64.54310127 96.69007798 64.48828125 105.71875 C64.46135445 107.366474 64.46135445 107.366474 64.43388367 109.04748535 C64.38000803 112.53161868 64.3459574 116.01561679 64.3125 119.5 C64.27930692 121.87241455 64.24481544 124.24481132 64.20898438 126.6171875 C64.12186746 132.41147537 64.06160203 138.20516082 64 144 C49.48 144 34.96 144 20 144 C24 142 24 142 27.625 141.0625 C31.24607658 140.31022387 31.24607658 140.31022387 33 137 C33.30435034 134.56814596 33.30435034 134.56814596 33.26069641 131.80677795 C33.27132362 130.19374535 33.27132362 130.19374535 33.28216553 128.54812622 C33.27968811 127.3683017 33.27721069 126.18847717 33.2746582 124.97290039 C33.27976913 123.73043045 33.28488007 122.48796051 33.29014587 121.20783997 C33.3016773 117.79868677 33.30411338 114.38977643 33.30158257 110.98062062 C33.30051357 108.13513718 33.30539444 105.28967622 33.310188 102.4441976 C33.32128697 95.73141739 33.32171844 89.01869314 33.31567383 82.3059082 C33.30963301 75.37976798 33.32194676 68.45383085 33.3432439 61.52772528 C33.36085454 55.58199075 33.36686211 49.63632089 33.36360615 43.69056123 C33.36179224 40.13908553 33.36444004 36.58775468 33.37832069 33.03630257 C33.39321875 29.0762852 33.38393356 25.11652686 33.37231445 21.15649414 C33.37995819 19.97869385 33.38760193 18.80089355 33.39547729 17.58740234 C33.38495583 15.97014 33.38495583 15.97014 33.3742218 14.32020569 C33.37447341 12.91570711 33.37447341 12.91570711 33.37473011 11.48283482 C33.12673032 8.51079283 33.12673032 8.51079283 30 5 C25.05 4.01 25.05 4.01 20 3 C20 17.19 20 31.38 20 46 C17.85128625 42.77692937 17.63458801 41.20581323 17.1875 37.4375 C15.58603457 27.29081061 10.9148569 18.66581346 3 12 C-3.94568863 7.80383365 -10.91278404 5.39787014 -18.953125 4.421875 C-19.62859375 4.28265625 -20.3040625 4.1434375 -21 4 C-21.33 3.34 -21.66 2.68 -22 2 C-16.85910079 1.09750144 -12.30273626 1.02013605 -7.0625 1.4375 C-6.03672852 1.51581055 -6.03672852 1.51581055 -4.99023438 1.59570312 C-3.32628831 1.72369898 -1.6630527 1.86087719 0 2 C0 1.34 0 0.68 0 0 Z " transform="translate(143 33)" class="color393939 svgShape"></path><path fill="#107a8b" d="M0 0 C25.41 0 50.82 0 77 0 C77.05607422 14.54835938 77.05607422 14.54835938 77.11328125 29.390625 C77.14354708 35.52475403 77.1745633 41.65886396 77.20898438 47.79296875 C77.26351246 57.53530163 77.31492332 67.27758139 77.34643555 77.02001953 C77.36939803 84.11482837 77.4027763 91.20949834 77.44870156 98.30419707 C77.47265757 102.06136247 77.49137068 105.81839013 77.49761391 109.57563019 C77.50477586 113.76839332 77.53518982 117.96067656 77.56762695 122.15332031 C77.56619186 123.40128891 77.56475677 124.64925751 77.5632782 125.93504333 C77.57581635 127.07645279 77.58835449 128.21786224 77.60127258 129.39385986 C77.60588155 130.38570911 77.61049051 131.37755836 77.61523914 132.39946365 C78.0639642 135.43232365 78.89336176 136.80126359 81 139 C83.4829419 139.90561146 83.4829419 139.90561146 86.1875 140.25 C87.53908203 140.47429687 87.53908203 140.47429687 88.91796875 140.703125 C89.94857422 140.85007813 89.94857422 140.85007813 91 141 C91 141.33 91 141.66 91 142 C71.53 142 52.06 142 32 142 C36 140 36 140 39.5625 139.0625 C43.44750681 137.8654065 43.44750681 137.8654065 46 135 C46.44891713 132.59073251 46.44891713 132.59073251 46.3742218 129.84474182 C46.38123611 128.7778009 46.38825043 127.71085999 46.39547729 126.61158752 C46.38783356 125.44111374 46.38018982 124.27063995 46.37231445 123.06469727 C46.37596512 121.8319809 46.37961578 120.59926453 46.38337708 119.32919312 C46.39010164 115.94677789 46.38335754 112.56491125 46.37004495 109.18254972 C46.35873384 105.6436669 46.36283776 102.1047984 46.36479187 98.56590271 C46.36567507 92.62160515 46.35459004 86.67742158 46.33618164 80.7331543 C46.31502329 73.86157785 46.3115019 66.99016852 46.3177436 60.1185661 C46.32343991 53.50895772 46.31778783 46.89940817 46.30657005 40.28980827 C46.3019266 37.47689666 46.30104913 34.66402105 46.3031559 31.85110664 C46.30539057 27.9222403 46.29092432 23.99353265 46.2746582 20.06469727 C46.27713562 18.89624771 46.27961304 17.72779816 46.28216553 16.52394104 C46.27508072 15.4541803 46.26799591 14.38441956 46.26069641 13.28224182 C46.25864354 12.35328378 46.25659067 11.42432573 46.25447559 10.46721745 C45.98128655 7.81856747 45.46034249 6.21825949 44 4 C39.3953819 1.7371591 36.55578986 1.93752645 31.75 3.5 C20.41443709 7.37319917 11.75347544 13.06249433 5.75 23.625 C3.06736999 29.38340407 2.15034905 35.79508693 1 42 C0.67 42 0.34 42 0 42 C0 28.14 0 14.28 0 0 Z " transform="translate(42 35)" class="color373737 svgShape"></path><path fill="#696a69" d="M0 0 C25.41 0 50.82 0 77 0 C77 44.55 77 89.1 77 135 C76.67 135 76.34 135 76 135 C76 90.78 76 46.56 76 1 C65.77 1 55.54 1 45 1 C45 1.66 45 2.32 45 3 C44.113125 2.7525 43.22625 2.505 42.3125 2.25 C33.70332784 1.04750429 24.27324165 5.74675296 17.21875 10.3046875 C6.32686793 18.62700584 3.41260521 28.98655372 1 42 C0.67 42 0.34 42 0 42 C0 28.14 0 14.28 0 0 Z " transform="translate(42 35)" class="color696A6A svgShape"></path><path fill="#3aaf79" d="M0 0 C1.95825873 -0.02694851 3.91662226 -0.04637218 5.875 -0.0625 C7.51082031 -0.07990234 7.51082031 -0.07990234 9.1796875 -0.09765625 C12 0 12 0 14 1 C15.52148326 1.08372659 17.04655778 1.10730027 18.5703125 1.09765625 C19.91416016 1.09282227 19.91416016 1.09282227 21.28515625 1.08789062 C22.69087891 1.07532227 22.69087891 1.07532227 24.125 1.0625 C25.54232422 1.05573242 25.54232422 1.05573242 26.98828125 1.04882812 C29.32558387 1.03702357 31.66276061 1.02055759 34 1 C34 1.66 34 2.32 34 3 C32.60554251 3.19747219 31.20931848 3.38248587 29.8125 3.5625 C28.64654297 3.71912109 28.64654297 3.71912109 27.45703125 3.87890625 C25 4 25 4 20 3 C20 17.19 20 31.38 20 46 C17.85128625 42.77692937 17.63458801 41.20581323 17.1875 37.4375 C15.58603457 27.29081061 10.9148569 18.66581346 3 12 C-3.94568863 7.80383365 -10.91278404 5.39787014 -18.953125 4.421875 C-19.62859375 4.28265625 -20.3040625 4.1434375 -21 4 C-21.33 3.34 -21.66 2.68 -22 2 C-16.85910079 1.09750144 -12.30273626 1.02013605 -7.0625 1.4375 C-6.03672852 1.51581055 -6.03672852 1.51581055 -4.99023438 1.59570312 C-3.32628831 1.72369898 -1.6630527 1.86087719 0 2 C0 1.34 0 0.68 0 0 Z " transform="translate(143 33)" class="color4BAF3A svgShape"></path><path fill="#6eef39" d="M0 0 C1.99854796 1.99854796 1.2796455 5.94799692 1.3515625 8.69140625 C1.37471527 9.47007553 1.39786804 10.24874481 1.42172241 11.05101013 C1.46946219 12.70622004 1.51468372 14.36150416 1.55761719 16.0168457 C1.62408185 18.52781328 1.70210601 21.03823224 1.78125 23.54882812 C1.82622891 25.15883454 1.87052068 26.76886033 1.9140625 28.37890625 C1.93796051 29.12193497 1.96185852 29.86496368 1.98648071 30.63050842 C2.10169747 35.52722057 1.70788806 40.15182174 1 45 C-0.60970658 42.0932158 -1.35855406 39.58508089 -1.875 36.3125 C-3.83411741 26.04973882 -8.57920263 16.85167222 -17.25 10.75 C-25.02825181 5.95536572 -33.02136697 3.45186406 -42 2 C-42 1.67 -42 1.34 -42 1 C-37.94735745 0.8548768 -33.89462486 0.71260501 -29.84179688 0.57275391 C-28.46872384 0.52499763 -27.09567571 0.47651871 -25.72265625 0.42724609 C-5.55500656 -0.29513317 -5.55500656 -0.29513317 0 0 Z " transform="translate(273 34)" class="colorEF9C39 svgShape"></path><path fill="#c5e0ba" d="M0 0 C1.95825873 -0.02694851 3.91662226 -0.04637218 5.875 -0.0625 C7.51082031 -0.07990234 7.51082031 -0.07990234 9.1796875 -0.09765625 C12 0 12 0 14 1 C15.52148326 1.08372659 17.04655778 1.10730027 18.5703125 1.09765625 C19.91416016 1.09282227 19.91416016 1.09282227 21.28515625 1.08789062 C22.69087891 1.07532227 22.69087891 1.07532227 24.125 1.0625 C25.54232422 1.05573242 25.54232422 1.05573242 26.98828125 1.04882812 C29.32558387 1.03702357 31.66276061 1.02055759 34 1 C34 1.66 34 2.32 34 3 C32.60554251 3.19747219 31.20931848 3.38248587 29.8125 3.5625 C28.64654297 3.71912109 28.64654297 3.71912109 27.45703125 3.87890625 C25 4 25 4 20 3 C20 17.19 20 31.38 20 46 C17.94815144 42.92222716 17.75626232 42.42648435 17.86474609 38.98754883 C17.88529053 38.175802 17.90583496 37.36405518 17.92700195 36.52770996 C17.97473755 35.255224 17.97473755 35.255224 18.0234375 33.95703125 C18.04510986 33.17372437 18.06678223 32.39041748 18.08911133 31.58337402 C18.17306124 28.65940155 18.27511672 25.73597156 18.375 22.8125 C18.58125 16.274375 18.7875 9.73625 19 3 C5.8 3.33 -7.4 3.66 -21 4 C-21.33 3.34 -21.66 2.68 -22 2 C-16.85910079 1.09750144 -12.30273626 1.02013605 -7.0625 1.4375 C-6.03672852 1.51581055 -6.03672852 1.51581055 -4.99023438 1.59570312 C-3.32628831 1.72369898 -1.6630527 1.86087719 0 2 C0 1.34 0 0.68 0 0 Z " transform="translate(143 33)" class="colorBFE0BA svgShape"></path><path fill="#868787" d="M0 0 C25.08 0 50.16 0 76 0 C76 0.33 76 0.66 76 1 C65.77 1 55.54 1 45 1 C45 1.66 45 2.32 45 3 C44.40533936 2.93433838 43.81067871 2.86867676 43.19799805 2.80102539 C34.41192276 1.91072708 25.63437896 1.67113532 16.8125 1.4375 C15.27277761 1.39419379 13.73306394 1.35057619 12.19335938 1.30664062 C8.46233316 1.20084264 4.73120711 1.09923932 1 1 C1.03552979 2.06436279 1.07105957 3.12872559 1.10766602 4.2253418 C1.2383293 8.18545528 1.36138456 12.14577535 1.48217773 16.10620117 C1.5354494 17.8181808 1.59076646 19.53009808 1.64819336 21.24194336 C1.73052001 23.70673178 1.80541647 26.17165294 1.87890625 28.63671875 C1.90594131 29.39836838 1.93297638 30.16001801 1.96083069 30.94474792 C2.06790504 34.78292465 1.95697118 38.27200114 1 42 C0.67 42 0.34 42 0 42 C0 28.14 0 14.28 0 0 Z " transform="translate(42 35)" class="color868787 svgShape"></path><path fill="#9e9f9e" d="M0 0 C0.33 0 0.66 0 1 0 C1 16.17 1 32.34 1 49 C-13.52 49 -28.04 49 -43 49 C-39 47 -39 47 -35.4375 46.0625 C-32.25863017 45.07994023 -30.9798536 44.56216348 -29 42 C-29.875 45.875 -29.875 45.875 -31 47 C-20.77 47.33 -10.54 47.66 0 48 C0 32.16 0 16.32 0 0 Z " transform="translate(206 128)" class="color9E9F9E svgShape"></path><path fill="#5cea23" d="M0 0 C2.31 0 4.62 0 7 0 C7 0.99 7 1.98 7 3 C12.445 2.01 12.445 2.01 18 1 C17.67 1.99 17.34 2.98 17 4 C16.01 4 15.02 4 14 4 C14 4.66 14 5.32 14 6 C15.175625 6.4640625 15.175625 6.4640625 16.375 6.9375 C19 8 19 8 21 9 C20.67 10.32 20.34 11.64 20 13 C19.56171875 12.62488281 19.1234375 12.24976563 18.671875 11.86328125 C12.93707683 7.235812 6.86598876 4.5861891 0 2 C0 1.34 0 0.68 0 0 Z " transform="translate(241 36)" class="colorEA9023 svgShape"></path><path fill="#79df4f" d="M0 0 C0.33 0 0.66 0 1 0 C1 8.91 1 17.82 1 27 C-4.2688172 19.09677419 -4.2688172 19.09677419 -3.6875 14.5625 C-3.460625 14.046875 -3.23375 13.53125 -3 13 C-2.01 13.33 -1.02 13.66 0 14 C0 9.38 0 4.76 0 0 Z " transform="translate(272 44)" class="colorDF9F4F svgShape"></path><path fill="#50e414" d="M0 0 C8.25 0 16.5 0 25 0 C25 2.64 25 5.28 25 8 C24.67 8 24.34 8 24 8 C24 5.69 24 3.38 24 1 C15.97591531 1.49688008 7.98204378 2.01974901 0 3 C0 2.01 0 1.02 0 0 Z " transform="translate(248 36)" class="colorE48314 svgShape"></path><path fill="#2cb978" d="M0 0 C0.33 0 0.66 0 1 0 C1 7.26 1 14.52 1 22 C-1.00993705 18.98509443 -1.72623341 16.7850073 -2.625 13.3125 C-2.88539063 12.31863281 -3.14578125 11.32476562 -3.4140625 10.30078125 C-3.60742188 9.54152344 -3.80078125 8.78226563 -4 8 C-3.01 8 -2.02 8 -1 8 C-0.67 5.36 -0.34 2.72 0 0 Z " transform="translate(161 49)" class="color64AB58 svgShape"></path><path fill="#7a7b7a" d="M0 0 C3.3 0.66 6.6 1.32 10 2 C9.67 2.66 9.34 3.32 9 4 C6.71484375 4.6328125 6.71484375 4.6328125 3.9375 5.125 C3.01839844 5.29257813 2.09929687 5.46015625 1.15234375 5.6328125 C0.08693359 5.81457031 0.08693359 5.81457031 -1 6 C-0.67 4.02 -0.34 2.04 0 0 Z " transform="translate(222 104)" class="color7A7B7A svgShape"></path><path fill="#83e85a" d="M0 0 C4.87664009 -0.34833144 7.77050005 0.58314288 12 3 C12 3.99 12 4.98 12 6 C6 4 6 4 0 2 C0 1.34 0 0.68 0 0 Z " transform="translate(130 36)" class="color77BD6B svgShape"></path><path fill="#bdc4ba" d="M0 0 C0 0.66 0 1.32 0 2 C-9.41002278 3.33257403 -9.41002278 3.33257403 -14 2 C-14 3.65 -14 5.3 -14 7 C-14.33 7 -14.66 7 -15 7 C-15 5.02 -15 3.04 -15 1 C-9.94997778 -0.03590199 -5.12583611 -0.10251672 0 0 Z " transform="translate(177 34)" class="colorBBC4BA svgShape"></path><path fill="#525452" d="M0 0 C2.97 0 5.94 0 9 0 C8 2 8 2 6.15234375 2.6328125 C5.42144531 2.79523437 4.69054687 2.95765625 3.9375 3.125 C2.83728516 3.37636719 2.83728516 3.37636719 1.71484375 3.6328125 C1.14894531 3.75398438 0.58304687 3.87515625 0 4 C-0.33 3.34 -0.66 2.68 -1 2 C-0.67 1.34 -0.34 0.68 0 0 Z " transform="translate(67 36)" class="color525453 svgShape"></path><path fill="#7de951" d="M0 0 C2.31 0 4.62 0 7 0 C7 0.99 7 1.98 7 3 C7.99 3 8.98 3 10 3 C10 3.66 10 4.32 10 5 C6.7 4.01 3.4 3.02 0 2 C0 1.34 0 0.68 0 0 Z " transform="translate(241 36)" class="colorE9A651 svgShape"></path><path fill="#7fbb67" d="M0 0 C1.65 0 3.3 0 5 0 C5.12375 0.804375 5.2475 1.60875 5.375 2.4375 C5.684375 3.7059375 5.684375 3.7059375 6 5 C6.66 5.33 7.32 5.66 8 6 C5 6 5 6 3.61328125 4.6875 C2.40885417 3.125 1.20442708 1.5625 0 0 Z " transform="translate(146 44)" class="color74BB67 svgShape"></path><path fill="#d6ded3" d="M0 0 C0.33 0.99 0.66 1.98 1 3 C-1.31 3 -3.62 3 -6 3 C-6.33 2.34 -6.66 1.68 -7 1 C-4.53721199 -0.231394 -2.7204945 -0.07159196 0 0 Z " transform="translate(128 34)" class="colorD4DED3 svgShape"></path><path fill="#86ec5c" d="M0 0 C1.32 0.33 2.64 0.66 4 1 C3.67 1.66 3.34 2.32 3 3 C3.99 3.33 4.98 3.66 6 4 C5.67 5.32 5.34 6.64 5 8 C2.525 4.04 2.525 4.04 0 0 Z " transform="translate(262 49)" class="colorECAD5C svgShape"></path><path fill="#7de852" d="M0 0 C4.75 0.875 4.75 0.875 7 2 C6.67 3.32 6.34 4.64 6 6 C3.97945196 4.35830472 1.97956942 2.69088222 0 1 C0 0.67 0 0.34 0 0 Z " transform="translate(255 43)" class="colorE8A552 svgShape"></path><path fill="#7cbb62" d="M0 0 C0.99 0.33 1.98 0.66 3 1 C2.67 3.31 2.34 5.62 2 8 C0.26216175 5.39324263 -0.50215905 3.98704569 -1 1 C-0.67 0.67 -0.34 0.34 0 0 Z " transform="translate(158 56)" class="color6EBB62 svgShape"></path></svg></g></svg>